<svg xmlns="http://www.w3.org/2000/svg" width="60" height="60" viewBox="0 0 60 60">
    <line x1="5.09" y1="17.9" x2="12.07" y2="10.92" fill="none" class="uk-stroke-primary" stroke="#0045d4" stroke-linecap="round" stroke-width="2"/>
    <line x1="5.09" y1="10.92" x2="12.07" y2="17.9" fill="none" class="uk-stroke-primary" stroke="#0045d4" stroke-linecap="round" stroke-width="2"/>
    <line x1="50.67" y1="34.86" x2="57.65" y2="27.88" fill="none" class="uk-stroke-primary" stroke="#0045d4" stroke-linecap="round" stroke-width="2"/>
    <line x1="50.67" y1="27.88" x2="57.65" y2="34.86" fill="none" class="uk-stroke-primary" stroke="#0045d4" stroke-linecap="round" stroke-width="2"/>
    <line x1="23.46" y1="30.04" x2="38.46" y2="15.04" fill="none" class="uk-stroke-primary" stroke="#0045d4" stroke-linecap="round" stroke-width="2"/>
    <line x1="23.46" y1="15.04" x2="38.46" y2="30.04" fill="none" class="uk-stroke-primary" stroke="#0045d4" stroke-linecap="round" stroke-width="2"/>
    <circle cx="23.41" cy="6.51" r="4.51" fill="none" class="uk-stroke-primary" stroke="#0045d4" stroke-linecap="round" stroke-width="2"/>
    <circle cx="5.75" cy="32.74" r="3.75" fill="none" class="uk-stroke-primary" stroke="#0045d4" stroke-linecap="round" stroke-width="2"/>
    <circle cx="10.89" cy="49.42" r="2.89" fill="none" class="uk-stroke-primary" stroke="#0045d4" stroke-linecap="round" stroke-width="2"/>
    <circle cx="53.74" cy="49.06" r="2.89" fill="none" class="uk-stroke-primary" stroke="#0045d4" stroke-linecap="round" stroke-width="2"/>
    <circle cx="39.88" cy="6.29" r="2.74" fill="none" class="uk-stroke-primary" stroke="#0045d4" stroke-linecap="round" stroke-width="2"/>
    <circle cx="51.28" cy="14.06" r="3.01" fill="none" class="uk-stroke-primary" stroke="#0045d4" stroke-linecap="round" stroke-width="2"/>
    <line x1="30.92" y1="34.95" x2="30.92" y2="59" fill="none" class="uk-stroke-primary" stroke="#0045d4" stroke-linecap="round" stroke-width="2"/>
    <path d="M35.25,59s-.35-11.13,2.74-20S49.74,22.05,49.74,22.05" fill="none" class="uk-stroke-primary" stroke="#0045d4" stroke-linecap="round" stroke-width="2"/>
    <path d="M51.33,39.72A20.63,20.63,0,0,0,42,50.85a43.75,43.75,0,0,0-2,8.15" fill="none" class="uk-stroke-primary" stroke="#0045d4" stroke-linecap="round" stroke-width="2"/>
    <path d="M26.57,59s.36-11.13-2.8-20-12-16.88-12-16.88" fill="none" class="uk-stroke-primary" stroke="#0045d4" stroke-linecap="round" stroke-width="2"/>
    <path d="M10.16,39.72a20.8,20.8,0,0,1,9.56,11.13A43,43,0,0,1,21.79,59" fill="none" class="uk-stroke-primary" stroke="#0045d4" stroke-linecap="round" stroke-width="2"/>
</svg>
